# xmcd
#
# Track frame offsets:
#	150
#	16376
#	38691
#	54587
#	71224
#	88809
#	101516
#	120878
#	138773
#	148647
#	163278
#
# Disc length: 2391 seconds
# Revision: 0
# Processed by: cddbd v1.5.2PL0 Copyright (c) Steve Scherf et al.
# Submitted via: dBpowerAMP V12.0
#
DISCID=9309550b
DTITLE=Anthony Gomes - Up 2 Zero
DYEAR=2
DGENRE=Blues
TTITLE0=Back to the Start
TTITLE1=One Last Time
TTITLE2=Love Sweet Love
TTITLE3=Fly Away
TTITLE4=Darkest Before the Dawn
TTITLE5=Room 414
TTITLE6=Voodoo Moon
TTITLE7=Anywhere You Run
TTITLE8=Last Bluesman Gone
TTITLE9=Up 2 Zero
TTITLE10=N'Abandonne Pas
EXTD=
EXTT0=
EXTT1=
EXTT2=
EXTT3=
EXTT4=
EXTT5=
EXTT6=
EXTT7=
EXTT8=
EXTT9=
EXTT10=
PLAYORDER=
